<?xml version="1.0" encoding="UTF-8" standalone="no"?>
<!DOCTYPE svg PUBLIC "-//W3C//DTD SVG 1.1//EN"
 "http://www.w3.org/Graphics/SVG/1.1/DTD/svg11.dtd">
<!-- Generated by graphviz version 2.47.0 (20210316.0004)
 -->
<!-- Title: dependencies Pages: 1 -->
<svg width="1363pt" height="284pt"
 viewBox="0.00 0.00 1363.00 284.00" xmlns="http://www.w3.org/2000/svg" xmlns:xlink="http://www.w3.org/1999/xlink">
<g id="graph0" class="graph" transform="scale(1 1) rotate(0) translate(4 280)">
<title>dependencies</title>
<polygon fill="white" stroke="transparent" points="-4,4 -4,-280 1359,-280 1359,4 -4,4"/>
<text text-anchor="start" x="656.51" y="-42.4" font-family="sans-serif" font-weight="bold" font-size="14.00">Legend</text>
<polygon fill="#ffffb3" stroke="transparent" points="443.5,-10 443.5,-30 463.5,-30 463.5,-10 443.5,-10"/>
<text text-anchor="start" x="467.13" y="-15.4" font-family="sans-serif" font-size="14.00"> &#160;Declarations</text>
<polygon fill="#8dd3c7" stroke="transparent" points="556.5,-10 556.5,-30 576.5,-30 576.5,-10 556.5,-10"/>
<text text-anchor="start" x="580.23" y="-15.4" font-family="sans-serif" font-size="14.00"> &#160;Module</text>
<polygon fill="#80b1d3" stroke="transparent" points="642.5,-10 642.5,-30 662.5,-30 662.5,-10 642.5,-10"/>
<text text-anchor="start" x="666.28" y="-15.4" font-family="sans-serif" font-size="14.00"> &#160;Bootstrap</text>
<polygon fill="#fdb462" stroke="transparent" points="739.5,-10 739.5,-30 759.5,-30 759.5,-10 739.5,-10"/>
<text text-anchor="start" x="763.17" y="-15.4" font-family="sans-serif" font-size="14.00"> &#160;Providers</text>
<polygon fill="#fb8072" stroke="transparent" points="835.5,-10 835.5,-30 855.5,-30 855.5,-10 835.5,-10"/>
<text text-anchor="start" x="859.23" y="-15.4" font-family="sans-serif" font-size="14.00"> &#160;Exports</text>
<g id="clust1" class="cluster">
<title>cluster_AppModule</title>
<polygon fill="none" stroke="black" stroke-dasharray="1,5" points="8,-70 8,-268 1347,-268 1347,-70 8,-70"/>
</g>
<g id="clust11" class="cluster">
<title>cluster_AppModule_imports</title>
<polygon fill="none" stroke="black" points="1195,-78 1195,-130 1339,-130 1339,-78 1195,-78"/>
</g>
<g id="clust13" class="cluster">
<title>cluster_AppModule_bootstrap</title>
<polygon fill="none" stroke="black" points="646,-208 646,-260 770,-260 770,-208 646,-208"/>
</g>
<g id="clust2" class="cluster">
<title>cluster_AppModule_declarations</title>
<polygon fill="none" stroke="black" points="16,-78 16,-130 1187,-130 1187,-78 16,-78"/>
</g>
<!-- AlertsComponent -->
<g id="node1" class="node">
<title>AlertsComponent</title>
<polygon fill="#ffffb3" stroke="black" points="1178.54,-122 1063.46,-122 1063.46,-86 1178.54,-86 1178.54,-122"/>
<text text-anchor="middle" x="1121" y="-99.8" font-family="Times,serif" font-size="14.00">AlertsComponent</text>
</g>
<!-- AppModule -->
<g id="node9" class="node">
<title>AppModule</title>
<polygon fill="#8dd3c7" stroke="black" points="749.66,-187 746.66,-191 725.66,-191 722.66,-187 666.34,-187 666.34,-151 749.66,-151 749.66,-187"/>
<text text-anchor="middle" x="708" y="-164.8" font-family="Times,serif" font-size="14.00">AppModule</text>
</g>
<!-- AlertsComponent&#45;&gt;AppModule -->
<g id="edge1" class="edge">
<title>AlertsComponent&#45;&gt;AppModule</title>
<path fill="none" stroke="black" d="M1121,-122.13C1121,-142.57 1121,-173 1121,-173 1121,-173 759.87,-173 759.87,-173"/>
<polygon fill="black" stroke="black" points="759.87,-169.5 749.87,-173 759.87,-176.5 759.87,-169.5"/>
</g>
<!-- AppComponent -->
<g id="node2" class="node">
<title>AppComponent</title>
<polygon fill="#ffffb3" stroke="black" points="1045.94,-122 940.06,-122 940.06,-86 1045.94,-86 1045.94,-122"/>
<text text-anchor="middle" x="993" y="-99.8" font-family="Times,serif" font-size="14.00">AppComponent</text>
</g>
<!-- AppComponent&#45;&gt;AppModule -->
<g id="edge2" class="edge">
<title>AppComponent&#45;&gt;AppModule</title>
<path fill="none" stroke="black" d="M993,-122.27C993,-140.56 993,-166 993,-166 993,-166 759.75,-166 759.75,-166"/>
<polygon fill="black" stroke="black" points="759.75,-162.5 749.75,-166 759.75,-169.5 759.75,-162.5"/>
</g>
<!-- FooterComponent -->
<g id="node3" class="node">
<title>FooterComponent</title>
<polygon fill="#ffffb3" stroke="black" points="921.88,-122 804.12,-122 804.12,-86 921.88,-86 921.88,-122"/>
<text text-anchor="middle" x="863" y="-99.8" font-family="Times,serif" font-size="14.00">FooterComponent</text>
</g>
<!-- FooterComponent&#45;&gt;AppModule -->
<g id="edge3" class="edge">
<title>FooterComponent&#45;&gt;AppModule</title>
<path fill="none" stroke="black" d="M863,-122.01C863,-138.05 863,-159 863,-159 863,-159 759.95,-159 759.95,-159"/>
<polygon fill="black" stroke="black" points="759.95,-155.5 749.95,-159 759.95,-162.5 759.95,-155.5"/>
</g>
<!-- MangaDeleteComponent -->
<g id="node4" class="node">
<title>MangaDeleteComponent</title>
<polygon fill="#ffffb3" stroke="black" points="786.24,-122 629.76,-122 629.76,-86 786.24,-86 786.24,-122"/>
<text text-anchor="middle" x="708" y="-99.8" font-family="Times,serif" font-size="14.00">MangaDeleteComponent</text>
</g>
<!-- MangaDeleteComponent&#45;&gt;AppModule -->
<g id="edge4" class="edge">
<title>MangaDeleteComponent&#45;&gt;AppModule</title>
<path fill="none" stroke="black" d="M708,-122.11C708,-122.11 708,-140.99 708,-140.99"/>
<polygon fill="black" stroke="black" points="704.5,-140.99 708,-150.99 711.5,-140.99 704.5,-140.99"/>
</g>
<!-- MangaEditComponent -->
<g id="node5" class="node">
<title>MangaEditComponent</title>
<polygon fill="#ffffb3" stroke="black" points="611.54,-122 468.46,-122 468.46,-86 611.54,-86 611.54,-122"/>
<text text-anchor="middle" x="540" y="-99.8" font-family="Times,serif" font-size="14.00">MangaEditComponent</text>
</g>
<!-- MangaEditComponent&#45;&gt;AppModule -->
<g id="edge5" class="edge">
<title>MangaEditComponent&#45;&gt;AppModule</title>
<path fill="none" stroke="black" d="M540,-122.01C540,-138.05 540,-159 540,-159 540,-159 656.04,-159 656.04,-159"/>
<polygon fill="black" stroke="black" points="656.04,-162.5 666.04,-159 656.04,-155.5 656.04,-162.5"/>
</g>
<!-- MangaListComponent -->
<g id="node6" class="node">
<title>MangaListComponent</title>
<polygon fill="#ffffb3" stroke="black" points="449.98,-122 308.02,-122 308.02,-86 449.98,-86 449.98,-122"/>
<text text-anchor="middle" x="379" y="-99.8" font-family="Times,serif" font-size="14.00">MangaListComponent</text>
</g>
<!-- MangaListComponent&#45;&gt;AppModule -->
<g id="edge6" class="edge">
<title>MangaListComponent&#45;&gt;AppModule</title>
<path fill="none" stroke="black" d="M379,-122.27C379,-140.56 379,-166 379,-166 379,-166 656.33,-166 656.33,-166"/>
<polygon fill="black" stroke="black" points="656.33,-169.5 666.33,-166 656.33,-162.5 656.33,-169.5"/>
</g>
<!-- MangasComponent -->
<g id="node7" class="node">
<title>MangasComponent</title>
<polygon fill="#ffffb3" stroke="black" points="289.65,-122 164.35,-122 164.35,-86 289.65,-86 289.65,-122"/>
<text text-anchor="middle" x="227" y="-99.8" font-family="Times,serif" font-size="14.00">MangasComponent</text>
</g>
<!-- MangasComponent&#45;&gt;AppModule -->
<g id="edge7" class="edge">
<title>MangasComponent&#45;&gt;AppModule</title>
<path fill="none" stroke="black" d="M227,-122.13C227,-142.57 227,-173 227,-173 227,-173 656.16,-173 656.16,-173"/>
<polygon fill="black" stroke="black" points="656.16,-176.5 666.16,-173 656.16,-169.5 656.16,-176.5"/>
</g>
<!-- NavbarComponent -->
<g id="node8" class="node">
<title>NavbarComponent</title>
<polygon fill="#ffffb3" stroke="black" points="146.03,-122 23.97,-122 23.97,-86 146.03,-86 146.03,-122"/>
<text text-anchor="middle" x="85" y="-99.8" font-family="Times,serif" font-size="14.00">NavbarComponent</text>
</g>
<!-- NavbarComponent&#45;&gt;AppModule -->
<g id="edge8" class="edge">
<title>NavbarComponent&#45;&gt;AppModule</title>
<path fill="none" stroke="black" d="M85,-122.01C85,-144.49 85,-180 85,-180 85,-180 656.16,-180 656.16,-180"/>
<polygon fill="black" stroke="black" points="656.16,-183.5 666.16,-180 656.16,-176.5 656.16,-183.5"/>
</g>
<!-- AppComponent  -->
<g id="node11" class="node">
<title>AppComponent </title>
<polygon fill="#80b1d3" stroke="black" points="762.44,-252 653.56,-252 653.56,-216 762.44,-216 762.44,-252"/>
<text text-anchor="middle" x="708" y="-229.8" font-family="Times,serif" font-size="14.00">AppComponent </text>
</g>
<!-- AppModule&#45;&gt;AppComponent  -->
<g id="edge10" class="edge">
<title>AppModule&#45;&gt;AppComponent </title>
<path fill="none" stroke="black" stroke-dasharray="1,5" d="M708,-187.11C708,-187.11 708,-205.99 708,-205.99"/>
<polygon fill="black" stroke="black" points="704.5,-205.99 708,-215.99 711.5,-205.99 704.5,-205.99"/>
</g>
<!-- AppRoutingModule -->
<g id="node10" class="node">
<title>AppRoutingModule</title>
<polygon fill="#8dd3c7" stroke="black" points="1331.27,-122 1328.27,-126 1307.27,-126 1304.27,-122 1202.73,-122 1202.73,-86 1331.27,-86 1331.27,-122"/>
<text text-anchor="middle" x="1267" y="-99.8" font-family="Times,serif" font-size="14.00">AppRoutingModule</text>
</g>
<!-- AppRoutingModule&#45;&gt;AppModule -->
<g id="edge9" class="edge">
<title>AppRoutingModule&#45;&gt;AppModule</title>
<path fill="none" stroke="black" d="M1267,-122.01C1267,-144.49 1267,-180 1267,-180 1267,-180 760.02,-180 760.02,-180"/>
<polygon fill="black" stroke="black" points="760.02,-176.5 750.02,-180 760.02,-183.5 760.02,-176.5"/>
</g>
</g>
</svg>
